<?xml version="1.0" standalone="no"?>
<!DOCTYPE svg PUBLIC "-//W3C//DTD SVG 20010904//EN"
 "http://www.w3.org/TR/2001/REC-SVG-20010904/DTD/svg10.dtd">
<svg version="1.0" xmlns="http://www.w3.org/2000/svg"
 width="600.000000pt" height="600.000000pt" viewBox="0 0 600.000000 600.000000"
 preserveAspectRatio="xMidYMid meet">
<metadata>
Created by potrace 1.11, written by Peter Selinger 2001-2013
</metadata>
<g transform="translate(0.000000,600.000000) scale(0.100000,-0.100000)"
fill="#000000" stroke="none">
<path d="M0 3000 l0 -3000 3000 0 3000 0 0 3000 0 3000 -3000 0 -3000 0 0
-3000z m3330 1826 c383 -76 620 -237 744 -508 62 -134 80 -230 81 -423 0 -192
-11 -250 -70 -372 -80 -163 -222 -301 -405 -393 l-64 -32 76 -28 c265 -97 462
-317 540 -602 20 -72 23 -107 23 -258 0 -193 -11 -265 -64 -410 -44 -119 -102
-211 -193 -306 -161 -167 -337 -259 -605 -316 -106 -22 -121 -23 -880 -26
l-773 -3 0 1851 0 1851 753 -4 c654 -3 763 -6 837 -21z"/>
<path d="M2230 3861 l0 -591 388 0 c418 0 525 8 642 47 218 72 366 233 400
435 16 94 7 253 -18 335 -54 172 -180 279 -393 334 -79 21 -111 23 -551 26
l-468 5 0 -591z"/>
<path d="M2230 2215 l0 -665 464 0 c500 0 546 4 678 53 188 71 322 217 374
407 25 90 26 328 1 420 -53 201 -176 336 -364 401 -121 42 -221 49 -700 49
l-453 0 0 -665z"/>
</g>
</svg>
